<svg width="32" height="32" viewBox="0 0 32 32" fill="none" xmlns="http://www.w3.org/2000/svg">
<circle cx="16" cy="16" r="16" fill="#D1FADF"/>
<path d="M7.39188 27.0666C7.50016 27.1173 7.6206 27.1363 7.73923 27.1214C7.85787 27.1064 7.96984 27.0582 8.06219 26.9823L9.56589 25.7282L11.3773 27.1902L11.3817 27.1936C11.4931 27.2813 11.6309 27.3288 11.7727 27.3285C11.9145 27.3282 12.052 27.28 12.163 27.1918L12.1675 27.1882L13.9581 25.7271L15.7487 27.1882L15.7532 27.1918C15.8642 27.28 16.0017 27.3281 16.1435 27.3285C16.2853 27.3288 16.423 27.2813 16.5345 27.1936L16.5388 27.1902L18.35 25.7282L19.8534 26.9822C19.9464 27.0583 20.0589 27.1065 20.1781 27.1215C20.2972 27.1364 20.4182 27.1174 20.527 27.0666C20.6297 27.0208 20.7171 26.9465 20.7788 26.8525C20.8405 26.7585 20.8739 26.6488 20.875 26.5363V24.0831L21.8991 24.9405C22.0111 25.0339 22.1525 25.085 22.2983 25.0846C22.3879 25.0846 22.4764 25.0642 22.5569 25.0248C22.6579 24.9783 22.7432 24.9034 22.8025 24.8092C22.8617 24.7151 22.8924 24.6058 22.8906 24.4945V22.0414L23.9278 22.8988C24.0423 22.9923 24.1857 23.0433 24.3336 23.0429C24.4276 23.0429 24.5204 23.0225 24.6058 22.9831C24.7084 22.9373 24.7956 22.8629 24.8572 22.7689C24.9188 22.6749 24.9521 22.5652 24.9531 22.4528V6.33639C24.9531 5.41862 24.1433 4.65625 23.1504 4.65625H12.9331C11.9402 4.65625 11.125 5.41862 11.125 6.33639V6.71875H10.8914C9.89847 6.71875 9.10938 7.46036 9.10938 8.37813V8.73438H8.84959C7.85673 8.73438 7.04688 9.50209 7.04688 10.4199V26.5363C7.04745 26.6485 7.08028 26.7581 7.14145 26.8522C7.20263 26.9462 7.28956 27.0206 7.39188 27.0666ZM11.875 6.33639C11.875 5.83216 12.3538 5.40625 12.9331 5.40625H23.1504C23.7297 5.40625 24.2031 5.83216 24.2031 6.33639V22.1422L22.8906 21.0648V8.37813C22.8906 7.46036 22.1015 6.71875 21.1086 6.71875H11.875V6.33639ZM9.85938 8.37813C9.85938 7.87389 10.312 7.46875 10.8914 7.46875H21.1086C21.688 7.46875 22.1406 7.87389 22.1406 8.37813V24.184L20.875 23.1063V10.4199C20.875 9.50209 20.0597 8.73438 19.0669 8.73438H9.85938V8.37813ZM7.79688 10.4199C7.79688 9.91563 8.27031 9.48438 8.84959 9.48438H19.0669C19.6462 9.48438 20.125 9.91563 20.125 10.4199V26.2257L18.7566 25.0874C18.755 25.0861 18.7517 25.0848 18.7501 25.0836C18.6391 24.9934 18.5006 24.9437 18.3576 24.9426C18.2146 24.9416 18.0754 24.9892 17.963 25.0777C17.9616 25.0789 17.9597 25.08 17.9583 25.0811L16.1459 26.544L14.3547 25.0825L14.35 25.0789C14.2386 24.9903 14.1005 24.9421 13.9582 24.9421C13.8159 24.9421 13.6778 24.9903 13.5664 25.0789L13.562 25.0825L11.7709 26.544L9.9587 25.0811L9.95439 25.0777C9.8422 24.9892 9.7032 24.9415 9.56029 24.9426C9.41739 24.9437 9.27911 24.9934 9.16825 25.0836C9.1667 25.0848 9.16413 25.0861 9.16258 25.0874L7.79688 26.2257V10.4199Z" fill="#34A853"/>
<path d="M11.0117 22.9375H16.9046C17.004 22.9375 17.0994 22.898 17.1697 22.8277C17.2401 22.7573 17.2796 22.662 17.2796 22.5625C17.2796 22.463 17.2401 22.3677 17.1697 22.2973C17.0994 22.227 17.004 22.1875 16.9046 22.1875H11.0117C10.9123 22.1875 10.8169 22.227 10.7466 22.2973C10.6762 22.3677 10.6367 22.463 10.6367 22.5625C10.6367 22.662 10.6762 22.7573 10.7466 22.8277C10.8169 22.898 10.9123 22.9375 11.0117 22.9375ZM13.9581 18.753C13.6106 18.7526 13.2774 18.6143 13.0316 18.3686C12.7859 18.1228 12.6476 17.7896 12.6472 17.4421C12.6472 17.3426 12.6077 17.2472 12.5374 17.1769C12.467 17.1066 12.3716 17.0671 12.2722 17.0671C12.1727 17.0671 12.0773 17.1066 12.007 17.1769C11.9367 17.2472 11.8972 17.3426 11.8972 17.4421C11.8978 17.9033 12.0529 18.3511 12.3378 18.7139C12.6226 19.0767 13.0207 19.3336 13.4686 19.4438V20.125C13.4686 20.2245 13.5081 20.3198 13.5785 20.3902C13.6488 20.4605 13.7442 20.5 13.8436 20.5C13.9431 20.5 14.0385 20.4605 14.1088 20.3902C14.1791 20.3198 14.2186 20.2245 14.2186 20.125V19.486C14.7384 19.4198 15.2135 19.1581 15.5471 18.7541C15.8808 18.3501 16.0481 17.8342 16.0149 17.3113C15.9817 16.7884 15.7506 16.2977 15.3685 15.9392C14.9864 15.5806 14.4821 15.381 13.9581 15.3811C13.621 15.3813 13.2968 15.2515 13.0529 15.0189C12.809 14.7862 12.664 14.4685 12.6482 14.1318C12.6324 13.7951 12.7469 13.4652 12.968 13.2107C13.189 12.9562 13.4997 12.7967 13.8353 12.7652C13.8381 12.7652 13.8408 12.7656 13.8436 12.7656C13.863 12.7656 13.8824 12.764 13.9016 12.7609C13.9203 12.7601 13.9391 12.7595 13.9581 12.7595C14.3057 12.7599 14.6389 12.8982 14.8846 13.1439C15.1304 13.3897 15.2686 13.7229 15.269 14.0704C15.269 14.1699 15.3086 14.2653 15.3789 14.3356C15.4492 14.4059 15.5446 14.4454 15.644 14.4454C15.7435 14.4454 15.8389 14.4059 15.9092 14.3356C15.9795 14.2653 16.019 14.1699 16.019 14.0704C16.0184 13.5692 15.8353 13.0853 15.504 12.7091C15.1727 12.3329 14.7158 12.0902 14.2186 12.0263V11.4531C14.2186 11.3537 14.1791 11.2583 14.1088 11.188C14.0385 11.1176 13.9431 11.0781 13.8436 11.0781C13.7442 11.0781 13.6488 11.1176 13.5785 11.188C13.5081 11.2583 13.4686 11.3537 13.4686 11.4531V12.0685C12.979 12.188 12.5501 12.4828 12.2632 12.8972C11.9762 13.3115 11.8511 13.8166 11.9113 14.317C11.9716 14.8174 12.2132 15.2783 12.5904 15.6126C12.9675 15.9469 13.4541 16.1315 13.9581 16.1312C14.3045 16.1333 14.6359 16.2723 14.8801 16.518C15.1242 16.7636 15.2613 17.0959 15.2613 17.4422C15.2613 17.7885 15.1242 18.1208 14.8801 18.3664C14.6359 18.612 14.3045 18.751 13.9581 18.7531V18.753Z" fill="#34A853"/>
</svg>
