<svg width="15" height="14" viewBox="0 0 15 14" fill="none" xmlns="http://www.w3.org/2000/svg">
<path d="M9.80005 1.5H11.3C11.5653 1.5 11.8196 1.60536 12.0072 1.79289C12.1947 1.98043 12.3 2.23478 12.3 2.5V12.5C12.3 12.7652 12.1947 13.0196 12.0072 13.2071C11.8196 13.3946 11.5653 13.5 11.3 13.5H3.30005C3.03483 13.5 2.78048 13.3946 2.59294 13.2071C2.40541 13.0196 2.30005 12.7652 2.30005 12.5V2.5C2.30005 2.23478 2.40541 1.98043 2.59294 1.79289C2.78048 1.60536 3.03483 1.5 3.30005 1.5H4.80005" stroke="#D0D5DD" stroke-linecap="round" stroke-linejoin="round"/>
<path d="M8.80005 0.5H5.80005C5.24776 0.5 4.80005 0.947715 4.80005 1.5V2C4.80005 2.55228 5.24776 3 5.80005 3H8.80005C9.35233 3 9.80005 2.55228 9.80005 2V1.5C9.80005 0.947715 9.35233 0.5 8.80005 0.5Z" stroke="#D0D5DD" stroke-linecap="round" stroke-linejoin="round"/>
<path d="M4.80005 8.5L6.80005 10L9.30005 6" stroke="#D0D5DD" stroke-linecap="round" stroke-linejoin="round"/>
</svg>
