<svg width="17" height="16" viewBox="0 0 17 16" fill="none" xmlns="http://www.w3.org/2000/svg">
<g id="Comment" clip-path="url(#clip0_46_21021)">
<path id="Vector" d="M1.24908 14.691C1.2894 14.7771 1.35342 14.8499 1.43366 14.9009C1.51389 14.952 1.60701 14.979 1.70208 14.979C3.13708 14.979 4.35108 14.63 5.73008 13.817C6.39908 13.923 7.72008 14.054 8.30008 14.054C12.6781 14.054 16.2391 11.131 16.2391 7.537C16.2391 3.943 12.6781 1.021 8.30008 1.021C3.92208 1.021 0.361084 3.943 0.361084 7.537C0.361084 9.231 1.17808 10.868 2.61608 12.081C2.28417 12.8312 1.84748 13.5305 1.31908 14.158C1.19508 14.308 1.16708 14.516 1.24908 14.691ZM1.36108 7.537C1.36108 4.495 4.47408 2.02 8.30008 2.02C12.1261 2.02 15.2391 4.495 15.2391 7.537C15.2391 10.579 12.1261 13.054 8.30008 13.054C7.72608 13.054 6.23208 12.9 5.72708 12.802C5.6049 12.7801 5.47891 12.8028 5.37208 12.866C4.44008 13.436 3.62708 13.762 2.75708 13.9C3.12986 13.337 3.44162 12.736 3.68708 12.107C3.72681 12.0057 3.73228 11.8941 3.70267 11.7894C3.67306 11.6847 3.60999 11.5925 3.52308 11.527C2.12808 10.471 1.36108 9.053 1.36108 7.537Z" fill="#D0D5DD"/>
</g>
<defs>
<clipPath id="clip0_46_21021">
<rect width="16" height="16" fill="white" transform="translate(0.300049)"/>
</clipPath>
</defs>
</svg>
