<svg width="164" height="39" viewBox="0 0 164 39" fill="none" xmlns="http://www.w3.org/2000/svg">
<path d="M0.702026 3.82471V31.2708H8.77981C17.5919 31.2708 23.2525 26.1304 23.2525 17.5631C23.2525 8.96512 17.5919 3.82471 8.77981 3.82471H0.702026ZM8.77981 9.63827C13.2777 9.63827 16.2762 12.3003 16.2762 17.5631C16.2762 22.7953 13.2777 25.4879 8.77981 25.4879H7.40292V9.63827H8.77981ZM43.9059 22.7035C43.9365 22.2139 43.9365 21.7855 43.9365 21.3878C43.9365 14.3809 40.3872 10.189 33.8393 10.189C27.781 10.189 23.7115 14.9929 23.7115 21.0512C23.7115 27.1095 27.8728 31.791 34.6654 31.791C39.9894 31.791 42.8044 28.4558 43.4164 27.2319L39.1021 23.8968C38.7043 24.5087 37.2357 26.0998 34.7878 26.0998C32.34 26.0998 30.5654 24.5393 30.4124 22.7035H43.9059ZM33.9617 15.4824C35.9811 15.4824 37.2051 16.8899 37.2968 18.5422H30.6266C30.7795 17.0735 31.7893 15.4824 33.9617 15.4824ZM55.6555 26.0386C52.6569 26.0386 50.6068 23.9886 50.6068 20.9594C50.6068 18.2362 52.3203 16.0638 55.4413 16.0638C56.9712 16.0638 58.4092 16.6451 59.5414 17.5937L61.316 12.0555C59.8779 11.0458 57.8585 10.189 55.1965 10.189C48.8322 10.189 44.0589 14.6869 44.0589 21.0206C44.0589 27.3237 48.6792 31.791 55.2271 31.791C57.8279 31.791 59.9085 30.9037 61.2854 29.9551L59.5414 24.5699C58.654 25.3349 57.1853 26.0386 55.6555 26.0386ZM61.3466 24.8759C61.3466 29.3738 64.9571 31.791 68.996 31.791C71.1073 31.791 72.6066 31.2096 73.6469 30.1387L74.0141 31.2708H79.8582V18.5422C79.8582 13.8301 78.053 10.189 70.9543 10.189C67.5274 10.189 64.743 11.2905 62.5705 12.7286L64.9877 17.1347C66.6094 16.3392 68.3535 15.819 70.1588 15.819C72.3006 15.819 73.3103 16.7981 73.3103 18.0526V18.8176C72.576 18.481 71.1379 18.0526 69.3326 18.0526C64.4676 18.0526 61.3466 20.7758 61.3466 24.8759ZM67.8945 24.6617C67.8945 23.3154 69.0572 22.4587 70.6483 22.4587C72.2088 22.4587 73.4327 23.2542 73.4327 24.6617C73.4327 26.0386 72.2394 26.773 70.6789 26.773C69.149 26.773 67.8945 26.0386 67.8945 24.6617ZM96.075 30.2305C96.075 32.7395 93.6578 33.2903 91.21 33.2903C88.4256 33.2903 86.1307 32.3111 85.5188 32.0358L83.6217 37.0538C85.4576 38.0023 88.3032 38.7979 91.21 38.7979C97.3295 38.7979 102.623 36.4112 102.623 28.823V10.6786H96.5034V12.3003C95.922 11.6271 93.9637 10.189 90.9346 10.189C85.0292 10.189 80.8679 14.6563 80.8679 20.9594C80.8679 27.3543 84.6315 31.791 90.598 31.791C93.719 31.791 95.6466 30.2305 96.075 29.7103V30.2305ZM96.2892 20.9288C96.2892 24.1722 94.4227 26.0386 91.8525 26.0386C89.1905 26.0386 87.4158 23.958 87.4158 20.9288C87.4158 17.869 89.1905 15.9414 91.8219 15.9414C94.6369 15.9414 96.2892 18.175 96.2892 20.9288ZM156.75 31.2708H163.298V19.8579C163.298 15.666 162.686 10.189 156.23 10.189C153.66 10.189 151.855 11.5965 151.059 12.8204V10.6786H144.664V31.2708H151.212V19.0012C151.212 17.3489 152.252 16.0638 154.058 16.0638C155.618 16.0638 156.75 17.0735 156.75 19.0012V31.2708Z" fill="#2D2F48"/>
<path fill-rule="evenodd" clip-rule="evenodd" d="M118.35 9.1487C119.238 9.1487 120.125 9.2405 121.012 9.42408L119.941 12.3615C119.452 12.3003 118.932 12.2697 118.411 12.2697C117.096 12.2697 115.841 12.4839 114.648 12.9122L114.158 9.79126C115.474 9.36289 116.882 9.1487 118.35 9.1487ZM116.698 28.67C116.239 27.8745 115.872 27.0483 115.597 26.2222L118.687 25.6714C118.87 26.1304 119.085 26.5894 119.36 27.0177C120.003 28.1805 120.829 29.1596 121.777 29.9551L119.36 31.944C118.32 31.026 117.432 29.9245 116.698 28.67ZM141.88 23.499C141.788 24.1722 141.666 24.8147 141.513 25.4573L140.166 24.8759C140.319 24.3252 140.472 23.7744 140.564 23.2236L141.88 23.499ZM140.044 28.8536C139.646 29.5574 139.157 30.1999 138.606 30.8119L137.321 29.435C137.81 28.976 138.239 28.4558 138.637 27.9051L140.044 28.8536ZM136.25 32.9231C135.913 33.1679 135.577 33.4127 135.21 33.6268C134.567 33.994 133.894 34.3 133.221 34.5448L132.609 32.25C133.404 32.0052 134.23 31.6686 134.995 31.2096C135.118 31.1484 135.21 31.0872 135.332 31.026L136.25 32.9231ZM130.773 35.2179C129.365 35.4627 127.927 35.4933 126.52 35.2791L127.407 32.5865C128.539 32.8007 129.733 32.8007 130.926 32.6477L130.773 35.2179ZM124.99 34.9731L126.153 32.3111C124.837 31.944 123.583 31.332 122.481 30.5059L120.37 32.7701C121.747 33.8104 123.338 34.5448 124.99 34.9731ZM110.211 33.5351C109.691 33.1373 109.171 32.7089 108.712 32.2194L109.875 31.3626C110.273 31.791 110.67 32.1888 111.129 32.5559L110.211 33.5351ZM106.478 29.282C106.111 28.5782 105.775 27.8133 105.499 27.0483L107.335 26.62C107.519 27.2625 107.733 27.9051 108.008 28.517L106.478 29.282ZM104.857 23.958C104.796 23.5296 104.796 23.1318 104.796 22.7035C104.796 21.9385 104.857 21.2348 104.979 20.5004L107.274 21.1124C107.06 21.9385 106.968 22.8259 106.968 23.7132V24.0804L104.857 23.958ZM105.622 18.0526C106.111 16.7063 106.815 15.4518 107.672 14.3503L109.569 16.431C108.834 17.3489 108.222 18.3586 107.764 19.4907L105.622 18.0526ZM108.712 13.157L110.426 15.513C111.405 14.5645 112.567 13.769 113.822 13.2182L112.935 10.2808C111.343 10.954 109.905 11.9331 108.712 13.157ZM134.414 20.3169C133.955 21.1124 133.435 21.8467 132.854 22.4893L130.834 20.1027C131.14 19.7049 131.416 19.2765 131.66 18.8482C132.333 17.6855 132.762 16.4921 133.007 15.2682L135.944 16.3698C135.638 17.7467 135.148 19.0624 134.414 20.3169ZM117.371 1.10152C117.983 0.826137 118.595 0.611953 119.238 0.458965L119.391 1.89706C118.84 2.01945 118.289 2.17244 117.769 2.38662L117.371 1.10152ZM122.909 0C123.705 0 124.531 0.091793 125.327 0.244781L124.776 2.05004C124.133 1.86646 123.46 1.77467 122.787 1.71347L122.909 0ZM128.325 1.22391C128.723 1.40749 129.09 1.59108 129.457 1.80526C130.1 2.17244 130.712 2.6008 131.263 3.05977L129.58 4.74264C128.968 4.16128 128.264 3.64112 127.468 3.18216C127.377 3.12096 127.254 3.05977 127.162 2.99857L128.325 1.22391ZM133.068 4.83443C133.986 5.93595 134.72 7.19045 135.24 8.47556L132.486 9.08751C132.058 7.98599 131.477 6.94567 130.742 5.99714L133.068 4.83443ZM135.76 9.97484C136.189 11.6271 136.342 13.3712 136.128 15.0847L133.129 14.3809C133.282 13.004 133.19 11.6271 132.854 10.3114L135.76 9.97484Z" fill="#B8D344"/>
<path fill-rule="evenodd" clip-rule="evenodd" d="M111.894 18.4197C112.353 17.6548 112.873 16.9204 113.455 16.2473L115.474 18.6339C115.168 19.0317 114.893 19.46 114.617 19.919C113.975 21.0511 113.516 22.275 113.302 23.4989L110.364 22.3668C110.67 21.0205 111.16 19.6742 111.894 18.4197ZM129.61 10.0971C130.069 10.8927 130.406 11.6882 130.712 12.545L127.621 13.0957C127.438 12.6367 127.193 12.1778 126.948 11.7188C126.275 10.5867 125.449 9.60757 124.5 8.78144L126.948 6.82318C127.958 7.74112 128.876 8.84263 129.61 10.0971ZM104.428 15.2375C104.49 14.595 104.612 13.9524 104.796 13.3099L106.142 13.8912C105.958 14.4114 105.836 14.9622 105.744 15.5435L104.428 15.2375ZM106.264 9.88295C106.662 9.2098 107.152 8.53665 107.672 7.9247L108.957 9.3016C108.498 9.79116 108.039 10.3113 107.672 10.8315L106.264 9.88295ZM110.028 5.81346C110.364 5.56868 110.731 5.3545 111.099 5.14031C111.741 4.77314 112.384 4.43657 113.057 4.19178L113.699 6.48661C112.873 6.73139 112.078 7.06797 111.282 7.52693C111.19 7.58813 111.068 7.64932 110.976 7.71052L110.028 5.81346ZM115.535 3.51864C116.943 3.27385 118.381 3.24326 119.788 3.45744L118.901 6.15004C117.738 5.96645 116.545 5.93585 115.382 6.11944L115.535 3.51864ZM121.318 3.76342L120.156 6.42542C121.471 6.79259 122.695 7.40454 123.827 8.23068L125.939 5.96645C124.531 4.95673 122.971 4.19178 121.318 3.76342ZM127.958 29.5879C127.04 29.5879 126.153 29.4961 125.296 29.3431L126.367 26.3751C126.856 26.4363 127.377 26.4975 127.866 26.4975C129.212 26.4975 130.467 26.2527 131.66 25.8549L132.119 28.9453C130.804 29.3737 129.427 29.5879 127.958 29.5879ZM136.097 5.23211C136.617 5.62988 137.107 6.05824 137.566 6.51721L136.403 7.40454C136.036 6.97617 135.607 6.5784 135.179 6.21123L136.097 5.23211ZM139.799 9.48518C140.197 10.1889 140.534 10.9233 140.809 11.6882L138.973 12.1166C138.79 11.474 138.545 10.8315 138.269 10.2195L139.799 9.48518ZM141.452 14.8092C141.482 15.2069 141.513 15.6353 141.513 16.0637C141.513 16.798 141.452 17.5324 141.329 18.2361L139.034 17.6242C139.218 16.798 139.34 15.9413 139.34 15.0234C139.34 14.901 139.34 14.7786 139.31 14.6562L141.452 14.8092ZM140.687 20.7145C140.197 22.0608 139.493 23.3153 138.637 24.4169L136.709 22.3056C137.474 21.3877 138.086 20.378 138.514 19.2764L140.687 20.7145ZM137.566 25.5796L135.852 23.2541C134.873 24.2027 133.741 24.9676 132.456 25.5184L133.374 28.4863C134.965 27.7826 136.372 26.8035 137.566 25.5796ZM128.937 37.6656C128.325 37.9104 127.713 38.1246 127.071 38.3082L126.887 36.8395C127.438 36.7477 127.989 36.5641 128.539 36.3805L128.937 37.6656ZM123.399 38.7366C122.573 38.7366 121.777 38.6448 120.982 38.4918L121.532 36.6865C122.175 36.8701 122.848 36.9925 123.491 37.0537L123.399 38.7366ZM117.953 37.5127C117.585 37.3291 117.218 37.1455 116.851 36.9313C116.208 36.5641 115.596 36.1358 115.046 35.6768L116.698 33.9939C117.341 34.5753 118.044 35.126 118.809 35.5544C118.932 35.6156 119.023 35.6768 119.146 35.738L117.953 37.5127ZM113.24 33.9021C112.292 32.8006 111.588 31.5767 111.037 30.261L113.822 29.6491C114.22 30.7506 114.801 31.7909 115.566 32.7394L113.24 33.9021ZM110.548 28.7617C110.089 27.1094 109.967 25.396 110.15 23.6519L113.149 24.3557C112.996 25.7325 113.118 27.1094 113.455 28.4557L110.548 28.7617Z" fill="#34A853"/>
</svg>
