<svg width="17" height="16" viewBox="0 0 17 16" fill="none" xmlns="http://www.w3.org/2000/svg">
<g clip-path="url(#clip0_460_2328)">
<path d="M8.19857 5.33329C8.9319 5.33329 9.5319 4.73329 9.5319 3.99996C9.5319 3.26663 8.9319 2.66663 8.19857 2.66663C7.46523 2.66663 6.86523 3.26663 6.86523 3.99996C6.86523 4.73329 7.46523 5.33329 8.19857 5.33329ZM8.19857 6.66663C7.46523 6.66663 6.86523 7.26663 6.86523 7.99996C6.86523 8.73329 7.46523 9.33329 8.19857 9.33329C8.9319 9.33329 9.5319 8.73329 9.5319 7.99996C9.5319 7.26663 8.9319 6.66663 8.19857 6.66663ZM8.19857 10.6666C7.46523 10.6666 6.86523 11.2666 6.86523 12C6.86523 12.7333 7.46523 13.3333 8.19857 13.3333C8.9319 13.3333 9.5319 12.7333 9.5319 12C9.5319 11.2666 8.9319 10.6666 8.19857 10.6666Z" fill="#323232"/>
</g>
<defs>
<clipPath id="clip0_460_2328">
<rect width="16" height="16" fill="white" transform="translate(0.199219)"/>
</clipPath>
</defs>
</svg>
