<svg width="32" height="32" viewBox="0 0 32 32" fill="none" xmlns="http://www.w3.org/2000/svg">
<circle cx="16" cy="16" r="16" fill="#D1FADF"/>
<path fill-rule="evenodd" clip-rule="evenodd" d="M16.321 9.63699C14.5728 9.63699 13.15 11.071 13.15 12.8275C13.15 13.816 13.6105 14.6905 14.317 15.2762C13.5063 15.3384 12.7303 15.6311 12.0805 16.12C11.8281 16.055 11.5687 16.0205 11.308 16.0172H11.2405C11.6199 15.6028 11.8311 15.0618 11.833 14.5C11.833 13.2542 10.8228 12.2342 9.58302 12.2342C8.34327 12.2342 7.33302 13.2542 7.33302 14.5C7.33302 15.115 7.58127 15.6707 7.97877 16.0802C7.16404 16.2318 6.42819 16.664 5.89915 17.3019C5.3701 17.9397 5.08132 18.7428 5.08302 19.5715V21.6265C5.08302 21.726 5.12252 21.8213 5.19285 21.8917C5.26318 21.962 5.35856 22.0015 5.45802 22.0015H10.342V22.3615C10.342 22.4609 10.3815 22.5563 10.4519 22.6267C10.5222 22.697 10.6176 22.7365 10.717 22.7365H12.8643C12.9291 22.7542 12.9975 22.7542 13.0623 22.7365H19.6023C19.6671 22.7542 19.7355 22.7542 19.8003 22.7365H21.949C22.0485 22.7365 22.1439 22.697 22.2142 22.6267C22.2845 22.5563 22.324 22.4609 22.324 22.3615V22.0015H27.208C27.3075 22.0015 27.4029 21.962 27.4732 21.8917C27.5435 21.8213 27.583 21.726 27.583 21.6265V19.5715C27.5847 18.7428 27.2959 17.9397 26.7669 17.3019C26.2378 16.664 25.502 16.2318 24.6873 16.0802C24.997 15.7623 25.2064 15.3603 25.2896 14.9243C25.3727 14.4883 25.326 14.0375 25.155 13.6278C24.9841 13.2182 24.6966 12.8678 24.3283 12.6201C23.9599 12.3725 23.5269 12.2386 23.083 12.235C21.8433 12.235 20.833 13.255 20.833 14.5007C20.833 15.0857 21.0618 15.6145 21.4263 16.018H21.3573C21.0873 16.018 20.8323 16.0615 20.5848 16.1207C19.9294 15.6282 19.1458 15.3353 18.328 15.277C19.0345 14.692 19.4943 13.816 19.4943 12.8282C19.4943 11.0717 18.0693 9.63774 16.3218 9.63774L16.321 9.63699ZM16.321 10.387C17.662 10.387 18.7435 11.4745 18.7435 12.8275C18.7464 13.4619 18.5004 14.0722 18.0582 14.5271C17.616 14.9821 17.013 15.2454 16.3788 15.2605H16.264C15.6298 15.2456 15.0267 14.9823 14.5846 14.5273C14.1425 14.0723 13.8967 13.4619 13.9 12.8275C13.898 12.5081 13.9592 12.1914 14.0799 11.8957C14.2006 11.6 14.3786 11.3311 14.6035 11.1043C14.8285 10.8775 15.096 10.6974 15.3907 10.5743C15.6855 10.4512 16.0016 10.3876 16.321 10.387ZM9.58302 12.9842C10.414 12.9842 11.083 13.6562 11.083 14.5C11.0848 14.6983 11.0473 14.895 10.9728 15.0787C10.8983 15.2625 10.7881 15.4297 10.6487 15.5707C10.5093 15.7117 10.3434 15.8238 10.1605 15.9004C9.97756 15.9771 9.78132 16.0168 9.58302 16.0172C8.75202 16.0172 8.08302 15.3445 8.08302 14.5C8.08302 13.6562 8.75202 12.9842 9.58302 12.9842ZM23.083 12.9842C23.914 12.9842 24.583 13.6562 24.583 14.5C24.5848 14.6983 24.5473 14.895 24.4728 15.0787C24.3983 15.2625 24.2881 15.4297 24.1487 15.5707C24.0093 15.7117 23.8434 15.8238 23.6605 15.9004C23.4776 15.9771 23.2813 16.0168 23.083 16.0172C22.252 16.0172 21.583 15.3445 21.583 14.5C21.583 13.6562 22.252 12.9842 23.083 12.9842ZM14.6485 16.0105H15.5815L15.2095 20.4692C15.2049 20.5235 15.2122 20.5781 15.2309 20.6293C15.2495 20.6804 15.2791 20.7269 15.3175 20.7655L16.0675 21.5155C16.1024 21.5504 16.1437 21.5781 16.1893 21.597C16.2348 21.6159 16.2837 21.6257 16.333 21.6257C16.3823 21.6257 16.4312 21.6159 16.4767 21.597C16.5223 21.5781 16.5637 21.5504 16.5985 21.5155L17.3485 20.7655C17.3869 20.7269 17.4165 20.6804 17.4352 20.6293C17.4538 20.5781 17.4611 20.5235 17.4565 20.4692L17.0845 16.0105H18.0175C18.8104 16.0122 19.5795 16.2818 20.2 16.7755C20.2005 16.7757 20.201 16.776 20.2015 16.7762C20.2146 16.7916 20.2289 16.8059 20.2443 16.819C20.6073 17.1161 20.9096 17.4805 21.1345 17.8922C21.166 17.9507 21.2005 18.007 21.2283 18.067C21.3426 18.3075 21.4297 18.5601 21.4878 18.82C21.4968 18.8605 21.5028 18.9025 21.5103 18.943C21.5478 19.153 21.574 19.3697 21.574 19.5917V21.9865H20.077V19.816C20.0778 19.7657 20.0685 19.7158 20.0497 19.6692C20.0308 19.6226 20.0028 19.5803 19.9672 19.5448C19.9317 19.5092 19.8894 19.4812 19.8428 19.4623C19.7962 19.4435 19.7463 19.4342 19.696 19.435C19.6468 19.4358 19.5982 19.4463 19.553 19.4658C19.5078 19.4854 19.4669 19.5137 19.4326 19.5491C19.3983 19.5844 19.3714 19.6262 19.3533 19.672C19.3351 19.7178 19.3262 19.7667 19.327 19.816V21.9865H13.339V19.816C13.3398 19.7657 13.3305 19.7158 13.3117 19.6692C13.2928 19.6226 13.2648 19.5803 13.2292 19.5448C13.1937 19.5092 13.1514 19.4812 13.1048 19.4623C13.0582 19.4435 13.0083 19.4342 12.958 19.435C12.9088 19.4358 12.8602 19.4463 12.815 19.4658C12.7698 19.4854 12.7289 19.5137 12.6946 19.5491C12.6603 19.5844 12.6334 19.6262 12.6153 19.672C12.5971 19.7178 12.5882 19.7667 12.589 19.816V21.9865H11.092V19.5925C11.092 19.3705 11.1183 19.1545 11.1565 18.9437C11.164 18.9025 11.1693 18.8612 11.1783 18.8207C11.2364 18.5608 11.3234 18.3083 11.4378 18.0677C11.4655 18.0077 11.5 17.9515 11.5315 17.893C11.7564 17.4813 12.0587 17.1169 12.4218 16.8197C12.4377 16.8063 12.4525 16.7915 12.466 16.7755C13.0865 16.2818 13.8556 16.0122 14.6485 16.0105ZM16.333 16.015C16.3334 16.0203 16.3339 16.0255 16.3345 16.0307L16.6945 20.3567L16.333 20.7182L15.9715 20.3567L16.3315 16.0307C16.3321 16.0255 16.3326 16.0203 16.333 16.015ZM8.60877 16.7672H11.3088C11.332 16.7672 11.3545 16.7732 11.3778 16.7777C10.7082 17.5623 10.3409 18.5603 10.342 19.5917V21.2515H8.08302V19.381C8.08362 19.3309 8.07417 19.2811 8.05522 19.2347C8.03627 19.1883 8.00821 19.1461 7.97268 19.1108C7.93716 19.0754 7.89491 19.0475 7.84842 19.0287C7.80193 19.0099 7.75214 19.0007 7.70202 19.0015C7.60282 19.0031 7.50829 19.0439 7.43913 19.115C7.36997 19.1862 7.33181 19.2818 7.33302 19.381V21.2515H5.83302V19.5715C5.83302 18.01 7.06677 16.7672 8.60877 16.7672ZM21.3573 16.7672H24.0573C25.5993 16.7672 26.833 18.01 26.833 19.5715V21.2515H25.333V19.5685C25.3338 19.5182 25.3245 19.4683 25.3057 19.4217C25.2868 19.3751 25.2588 19.3328 25.2232 19.2973C25.1877 19.2617 25.1454 19.2337 25.0988 19.2148C25.0522 19.196 25.0023 19.1867 24.952 19.1875C24.9028 19.1883 24.8542 19.1988 24.809 19.2183C24.7638 19.2379 24.7229 19.2662 24.6886 19.3016C24.6543 19.3369 24.6274 19.3787 24.6093 19.4245C24.5911 19.4703 24.5822 19.5192 24.583 19.5685V21.2515H22.324V19.5917C22.3254 18.5604 21.9583 17.5624 21.289 16.7777C21.3115 16.774 21.334 16.7672 21.3573 16.7672Z" fill="#27AE60"/>
</svg>
