<svg width="32" height="32" viewBox="0 0 32 32" fill="none" xmlns="http://www.w3.org/2000/svg">
<circle cx="16" cy="16" r="16" fill="#D1FADF"/>
<g clip-path="url(#clip0_88_4641)">
<path d="M14.0432 15.29C13.8549 15.1017 13.5995 14.9959 13.3332 14.9959C13.0669 14.9959 12.8115 15.1017 12.6232 15.29C12.4349 15.4783 12.3291 15.7337 12.3291 16C12.3291 16.2663 12.4349 16.5217 12.6232 16.71L15.6232 19.71C15.7166 19.8027 15.8274 19.876 15.9493 19.9258C16.0711 19.9755 16.2016 20.0008 16.3332 20C16.4701 19.9957 16.6046 19.9632 16.7285 19.9047C16.8523 19.8463 16.9629 19.763 17.0532 19.66L24.0532 11.66C24.2148 11.4593 24.2928 11.204 24.2707 10.9473C24.2487 10.6905 24.1285 10.4522 23.935 10.282C23.7416 10.1118 23.4899 10.0228 23.2325 10.0336C22.975 10.0444 22.7317 10.1542 22.5532 10.34L16.3332 17.54L14.0432 15.29Z" fill="#34A853"/>
<path d="M25.3328 15C25.0676 15 24.8132 15.1054 24.6257 15.2929C24.4382 15.4804 24.3328 15.7348 24.3328 16C24.3328 18.1217 23.49 20.1566 21.9897 21.6569C20.4894 23.1571 18.4546 24 16.3328 24C14.7529 23.9993 13.2086 23.5308 11.8946 22.6535C10.5806 21.7763 9.55575 20.5297 8.9493 19.0708C8.34286 17.6119 8.18196 16.0061 8.48691 14.4559C8.79185 12.9057 9.54898 11.4805 10.6628 10.36C11.4035 9.60938 12.2865 9.01404 13.2601 8.60881C14.2337 8.20358 15.2783 7.99661 16.3328 8C16.9723 8.004 17.6094 8.07777 18.2328 8.22C18.3633 8.26035 18.5006 8.27356 18.6364 8.2588C18.7722 8.24404 18.9035 8.20163 19.0222 8.13418C19.141 8.06673 19.2446 7.97567 19.3268 7.86662C19.409 7.75757 19.4681 7.63284 19.5002 7.50011C19.5324 7.36739 19.537 7.22948 19.5138 7.0949C19.4906 6.96032 19.4401 6.83191 19.3654 6.71759C19.2907 6.60327 19.1934 6.50547 19.0794 6.43021C18.9655 6.35495 18.8373 6.30383 18.7028 6.28C17.926 6.09724 17.1309 6.00331 16.3328 6C14.3572 6.01026 12.4288 6.60552 10.7911 7.71065C9.15343 8.81578 7.87979 10.3813 7.13094 12.2095C6.38209 14.0378 6.19158 16.0469 6.58346 17.9834C6.97533 19.9198 7.93203 21.6968 9.33282 23.09C11.1895 24.9475 13.7065 25.9939 16.3328 26C18.985 26 21.5285 24.9464 23.4039 23.0711C25.2793 21.1957 26.3328 18.6522 26.3328 16C26.3328 15.7348 26.2275 15.4804 26.0399 15.2929C25.8524 15.1054 25.598 15 25.3328 15Z" fill="#34A853"/>
</g>
<defs>
<clipPath id="clip0_88_4641">
<rect width="24" height="24" fill="white" transform="translate(4.33301 4)"/>
</clipPath>
</defs>
</svg>
