<svg width="32" height="32" viewBox="0 0 32 32" fill="none" xmlns="http://www.w3.org/2000/svg">
<circle cx="16" cy="16" r="16" fill="#D1FADF"/>
<path d="M18.7137 7.84H13.9521C13.5345 7.84 13.1889 8.1808 13.1889 8.6032V9.0064H11.8833C11.0865 9.0064 10.4385 9.6496 10.4385 10.4416V22.72C10.4385 23.512 11.0865 24.1552 11.8833 24.1552H20.7777C21.5745 24.1552 22.2225 23.512 22.2225 22.72V10.4464C22.2225 9.6544 21.5745 9.0112 20.7777 9.0112H19.4721V8.608C19.4769 8.1856 19.1361 7.84 18.7137 7.84ZM13.9521 8.6176H18.6993L18.7041 9.0064H18.6993L18.7137 10.3024L13.9665 10.3168V9.0016H13.9521V8.6176ZM20.7825 9.784C21.1521 9.784 21.4497 10.0816 21.4497 10.4464V22.72C21.4497 23.0848 21.1521 23.3824 20.7825 23.3824H11.8833C11.5137 23.3824 11.2161 23.0848 11.2161 22.72V10.4464C11.2161 10.0816 11.5137 9.784 11.8833 9.784H13.1889V10.3216C13.1889 10.744 13.5297 11.0848 13.9521 11.0848H18.7137C19.1313 11.0848 19.4769 10.744 19.4769 10.3216V9.784H20.7825Z" fill="#27AE60"/>
<path d="M19.9521 17.224H19.2609C18.8241 17.224 18.4689 17.5792 18.4689 18.016V18.7024C18.4689 19.1392 18.8241 19.4944 19.2609 19.4944H19.9473C20.3841 19.4944 20.7393 19.1392 20.7393 18.7024V18.016C20.7441 17.5792 20.3889 17.224 19.9521 17.224ZM19.2465 18.7024L19.2561 18.1696L19.2609 18.0016L19.9617 18.016V18.7024C19.9617 18.712 19.9569 18.7168 19.9473 18.7168L19.2465 18.7024ZM19.9521 20.0944H19.2609C18.8241 20.0944 18.4689 20.4496 18.4689 20.8864V21.5728C18.4689 22.0096 18.8241 22.3648 19.2609 22.3648H19.9473C20.3841 22.3648 20.7393 22.0096 20.7393 21.5728V20.8864C20.7441 20.4496 20.3889 20.0944 19.9521 20.0944ZM19.2465 21.5728L19.2609 21.04L19.2657 20.872L19.9665 20.8864V21.5728C19.9665 21.5824 19.9617 21.5872 19.9521 21.5872L19.2465 21.5728ZM13.2849 13.1968H17.6049C17.8017 13.1968 17.9601 13.0384 17.9601 12.8416V12.7216C17.9601 12.5248 17.8017 12.3664 17.6049 12.3664H13.2849C13.0881 12.3664 12.9297 12.5248 12.9297 12.7216V12.8416C12.9297 13.0384 13.0881 13.1968 13.2849 13.1968ZM18.9441 11.5696C18.9489 11.5696 18.9489 11.5696 18.9489 11.5696C18.9441 11.5744 18.9441 11.5696 18.9441 11.5696Z" fill="#27AE60"/>
<path d="M19.1507 11.6704C19.1507 11.6704 19.1507 11.6656 19.1459 11.6656C19.1411 11.6608 19.1459 11.6608 19.1411 11.656C19.1363 11.6512 19.1315 11.6512 19.1315 11.6464C19.1267 11.6416 19.1219 11.6368 19.1171 11.632C19.1219 11.6368 19.1267 11.6416 19.1315 11.6416C19.1219 11.632 19.1075 11.6224 19.0931 11.6128C19.0835 11.608 19.0835 11.6032 19.0739 11.5984C19.0691 11.5984 19.0643 11.5984 19.0595 11.5936C19.0307 11.5792 18.9923 11.5696 18.9491 11.5696C18.8867 11.5648 18.8147 11.5744 18.7139 11.6128C18.7091 11.6128 18.7091 11.6176 18.7043 11.6224C18.6659 11.6416 18.6323 11.6608 18.6035 11.6848C18.5939 11.6944 18.5891 11.704 18.5843 11.7088C18.5651 11.7328 18.5459 11.752 18.5363 11.776C18.5363 11.7808 18.5315 11.7808 18.5267 11.7856C18.5219 11.7952 18.5267 11.8 18.5219 11.8096C18.5123 11.8384 18.5075 11.8672 18.5075 11.896C18.5075 11.9056 18.5075 11.9152 18.5075 11.9296C18.5075 11.968 18.5123 12.0016 18.5219 12.0352C18.5267 12.0448 18.5267 12.0544 18.5315 12.064C18.5363 12.0832 18.5411 12.1024 18.5459 12.1168C18.5555 12.1456 18.5651 12.1648 18.5651 12.1696L19.4147 13.216C19.4483 13.2544 19.4867 13.2832 19.5347 13.3024C19.5491 13.3072 19.5635 13.3072 19.5779 13.312C19.6019 13.3168 19.6307 13.3312 19.6595 13.3312C19.6691 13.3312 19.6787 13.3312 19.6835 13.3312C19.7123 13.3312 19.7363 13.3168 19.7603 13.3072C19.7795 13.2976 19.8035 13.2976 19.8227 13.288C19.8659 13.2592 19.9043 13.2256 19.9331 13.1776L20.8835 11.56C20.8835 11.56 20.8883 11.5312 20.8979 11.5072C20.8979 11.5024 20.8979 11.5024 20.9027 11.4928C20.9027 11.4832 20.9027 11.4688 20.9027 11.4592C20.9123 11.3776 20.9171 11.2576 20.8547 11.152C20.8211 11.0944 20.7635 11.0368 20.6819 10.9984C20.6771 10.9984 20.6723 10.9984 20.6675 10.9936C20.6243 10.9744 20.5811 10.9648 20.5475 10.96C20.5331 10.96 20.5235 10.96 20.5139 10.96C20.4803 10.96 20.4467 10.9648 20.4179 10.9744C20.4131 10.9744 20.4083 10.9744 20.3987 10.9792C20.3939 10.9792 20.3939 10.984 20.3891 10.984C20.3603 10.9936 20.3363 11.0128 20.3171 11.0272C20.3075 11.032 20.3027 11.0416 20.2979 11.0464C20.2835 11.0608 20.2739 11.0704 20.2643 11.0848C20.2547 11.0944 20.2499 11.0992 20.2451 11.1088C20.2403 11.1184 20.2355 11.1232 20.2307 11.1328C20.2211 11.152 20.2115 11.1664 20.2115 11.1664L19.7267 11.9968L19.6019 12.2128L19.1699 11.68C19.1603 11.6848 19.1555 11.6752 19.1507 11.6704ZM18.5219 11.8096C18.5219 11.8048 18.5219 11.7952 18.5267 11.7904C18.5267 11.7856 18.5315 11.7856 18.5315 11.7808C18.5267 11.7904 18.5267 11.8 18.5219 11.8096ZM20.3891 10.984C20.3939 10.984 20.3987 10.984 20.3987 10.984C20.3939 10.984 20.3891 10.9888 20.3843 10.9888C20.3843 10.984 20.3891 10.984 20.3891 10.984ZM19.6739 13.336C19.6643 13.336 19.6595 13.336 19.6499 13.336C19.6259 13.336 19.6067 13.3264 19.5827 13.3216C19.6163 13.3264 19.6451 13.336 19.6739 13.336ZM17.6291 15.256H13.3091C13.1123 15.256 12.9539 15.4144 12.9539 15.6112V15.7312C12.9539 15.928 13.1123 16.0864 13.3091 16.0864H17.6291C17.8259 16.0864 17.9843 15.928 17.9843 15.7312V15.6112C17.9843 15.4144 17.8259 15.256 17.6291 15.256ZM17.6291 18.0064H13.3091C13.1123 18.0064 12.9539 18.1648 12.9539 18.3616V18.4816C12.9539 18.6784 13.1123 18.8368 13.3091 18.8368H17.6291C17.8259 18.8368 17.9843 18.6784 17.9843 18.4816V18.3616C17.9843 18.1696 17.8259 18.0064 17.6291 18.0064ZM17.5619 20.8576H13.2419C13.0451 20.8576 12.8867 21.016 12.8867 21.2128V21.3328C12.8867 21.5296 13.0451 21.688 13.2419 21.688H17.5619C17.7587 21.688 17.9171 21.5296 17.9171 21.3328V21.2128C17.9171 21.016 17.7587 20.8576 17.5619 20.8576ZM18.9683 14.4592H18.9731C18.9683 14.4592 18.9683 14.4592 18.9683 14.4592ZM20.6963 13.8928C20.6915 13.8928 20.6867 13.8928 20.6819 13.888C20.6387 13.8688 20.5955 13.8592 20.5619 13.8544C20.5475 13.8544 20.5379 13.8544 20.5283 13.8544C20.4947 13.8544 20.4611 13.8592 20.4323 13.8688C20.4275 13.8688 20.4227 13.8688 20.4131 13.8736C20.4083 13.8736 20.4083 13.8784 20.4035 13.8784C20.3747 13.8928 20.3507 13.9072 20.3315 13.9216C20.3219 13.9264 20.3171 13.936 20.3123 13.9408C20.2979 13.9552 20.2883 13.9648 20.2787 13.9792C20.2739 13.9888 20.2643 13.9936 20.2595 14.0032C20.2547 14.0128 20.2499 14.0176 20.2451 14.0272C20.2355 14.0464 20.2259 14.0608 20.2259 14.0608L19.7411 14.8864L19.6163 15.1024L19.1843 14.5696C19.1843 14.5696 19.1795 14.56 19.1747 14.5552C19.1747 14.5504 19.1699 14.5504 19.1699 14.5456C19.1651 14.5408 19.1699 14.5408 19.1651 14.536C19.1603 14.5312 19.1555 14.5312 19.1555 14.5264C19.1507 14.5216 19.1459 14.5168 19.1411 14.512C19.1459 14.5168 19.1507 14.5216 19.1555 14.5216C19.1459 14.512 19.1315 14.5024 19.1171 14.4928C19.1075 14.488 19.1075 14.4832 19.0979 14.4784C19.0931 14.4784 19.0883 14.4784 19.0835 14.4736C19.0547 14.4592 19.0163 14.4544 18.9731 14.4496C18.9107 14.4448 18.8387 14.4544 18.7379 14.4928C18.7331 14.4928 18.7331 14.4976 18.7283 14.4976C18.6899 14.5168 18.6563 14.536 18.6275 14.56C18.6179 14.5696 18.6131 14.5792 18.6083 14.584C18.5891 14.608 18.5699 14.6272 18.5603 14.6512C18.5603 14.656 18.5555 14.656 18.5507 14.6608C18.5459 14.6704 18.5507 14.6752 18.5459 14.6848C18.5363 14.7136 18.5315 14.7424 18.5315 14.7712C18.5315 14.7808 18.5315 14.7904 18.5315 14.8048C18.5315 14.8432 18.5363 14.8768 18.5459 14.9104C18.5507 14.92 18.5507 14.9296 18.5555 14.9392C18.5603 14.9584 18.5651 14.9776 18.5699 14.992C18.5795 15.0208 18.5891 15.04 18.5891 15.0448L19.4387 16.0912C19.4723 16.1296 19.5107 16.1584 19.5587 16.1776C19.5731 16.1824 19.5875 16.1824 19.6019 16.1872C19.6259 16.192 19.6547 16.2064 19.6835 16.2064C19.6931 16.2064 19.7027 16.2064 19.7075 16.2064C19.7363 16.2064 19.7603 16.192 19.7843 16.1824C19.8035 16.1776 19.8275 16.1728 19.8467 16.1632C19.8899 16.1344 19.9283 16.1008 19.9571 16.0528L20.9075 14.4352C20.9075 14.4352 20.9123 14.4064 20.9219 14.3824C20.9219 14.3776 20.9219 14.3776 20.9267 14.368C20.9267 14.3584 20.9267 14.344 20.9267 14.3344C20.9363 14.2528 20.9411 14.1328 20.8787 14.0272C20.8307 13.9888 20.7779 13.9312 20.6963 13.8928ZM18.5459 14.6992C18.5459 14.6944 18.5459 14.6848 18.5507 14.68C18.5507 14.6752 18.5555 14.6752 18.5555 14.6704C18.5507 14.68 18.5507 14.6896 18.5459 14.6992ZM19.6787 16.2256C19.6547 16.2256 19.6355 16.216 19.6115 16.2112C19.6403 16.216 19.6739 16.2256 19.7027 16.2256C19.6931 16.2256 19.6835 16.2256 19.6787 16.2256ZM20.4083 13.8736L20.4131 13.8688C20.4179 13.8688 20.4227 13.8688 20.4227 13.8688C20.4179 13.8736 20.4131 13.8736 20.4083 13.8736Z" fill="#27AE60"/>
</svg>
