<svg width="13" height="13" viewBox="0 0 13 13" fill="none" xmlns="http://www.w3.org/2000/svg">
<path d="M12.1992 6.5C12.1992 9.81371 9.51293 12.5 6.19922 12.5C2.88551 12.5 0.199219 9.81371 0.199219 6.5C0.199219 3.18629 2.88551 0.5 6.19922 0.5C9.51293 0.5 12.1992 3.18629 12.1992 6.5ZM0.786619 6.5C0.786619 9.4893 3.20992 11.9126 6.19922 11.9126C9.18852 11.9126 11.6118 9.4893 11.6118 6.5C11.6118 3.5107 9.18852 1.0874 6.19922 1.0874C3.20992 1.0874 0.786619 3.5107 0.786619 6.5Z" fill="#FEE4E2"/>
<path d="M12.1992 6.5C12.1992 5.71207 12.044 4.93185 11.7425 4.2039C11.441 3.47595 10.999 2.81451 10.4419 2.25736C9.88471 1.70021 9.22327 1.25825 8.49532 0.956723C7.76737 0.655195 6.98715 0.5 6.19922 0.5L6.19922 1.0874C6.91001 1.0874 7.61384 1.2274 8.27053 1.49941C8.92722 1.77142 9.5239 2.17011 10.0265 2.67271C10.5291 3.17532 10.9278 3.772 11.1998 4.42869C11.4718 5.08537 11.6118 5.78921 11.6118 6.5H12.1992Z" fill="#F04438"/>
<g clip-path="url(#clip0_460_2340)">
<path d="M5.44828 7.54246L4.40578 6.49996L4.05078 6.85246L5.44828 8.24996L8.44828 5.24996L8.09578 4.89746L5.44828 7.54246Z" fill="#F04438"/>
</g>
<defs>
<clipPath id="clip0_460_2340">
<rect width="6" height="6" fill="white" transform="translate(3.19922 3.5)"/>
</clipPath>
</defs>
</svg>
