<?xml version="1.0" encoding="UTF-8" standalone="no"?>
<svg width="133" height="32" viewBox="0 0 133 32" fill="none" xmlns="http://www.w3.org/2000/svg">
<path d="M0 3.1546V25.7918H6.59486C13.7892 25.7918 18.4106 21.5521 18.4106 14.4858C18.4106 7.39435 13.7892 3.1546 6.59486 3.1546H0ZM6.59486 7.94956C10.267 7.94956 12.7151 10.1451 12.7151 14.4858C12.7151 18.8013 10.267 21.0221 6.59486 21.0221H5.47074V7.94956H6.59486ZM35.2725 18.7256C35.2975 18.3218 35.2975 17.9685 35.2975 17.6404C35.2975 11.8612 32.3997 8.40382 27.0539 8.40382C22.1078 8.40382 18.7854 12.366 18.7854 17.3628C18.7854 22.3597 22.1827 26.2209 27.7284 26.2209C32.075 26.2209 34.3732 23.4701 34.8728 22.4606L31.3506 19.7098C31.0258 20.2145 29.8267 21.5268 27.8283 21.5268C25.8299 21.5268 24.381 20.2398 24.2561 18.7256H35.2725ZM27.1538 12.7697C28.8025 12.7697 29.8018 13.9306 29.8767 15.2934H24.431C24.5559 14.0821 25.3802 12.7697 27.1538 12.7697ZM44.865 21.4764C42.4169 21.4764 40.7432 19.7855 40.7432 17.2871C40.7432 15.041 42.1421 13.2492 44.6902 13.2492C45.9392 13.2492 47.1133 13.7287 48.0375 14.5111L49.4864 9.94325C48.3123 9.11044 46.6636 8.40382 44.4903 8.40382C39.2944 8.40382 35.3974 12.1136 35.3974 17.3376C35.3974 22.5363 39.1695 26.2209 44.5153 26.2209C46.6386 26.2209 48.3373 25.489 49.4614 24.7067L48.0375 20.265C47.3131 20.8959 46.114 21.4764 44.865 21.4764ZM49.5114 20.5174C49.5114 24.2272 52.4591 26.2209 55.7565 26.2209C57.4802 26.2209 58.7042 25.7414 59.5536 24.8581L59.8533 25.7918H64.6246V15.2934C64.6246 11.407 63.1508 8.40382 57.3553 8.40382C54.5575 8.40382 52.2842 9.31233 50.5106 10.4985L52.4841 14.1325C53.808 13.4764 55.2319 13.0473 56.7058 13.0473C58.4544 13.0473 59.2788 13.8549 59.2788 14.8896V15.5205C58.6793 15.2429 57.5052 14.8896 56.0313 14.8896C52.0594 14.8896 49.5114 17.1357 49.5114 20.5174ZM54.8572 20.3407C54.8572 19.2303 55.8065 18.5237 57.1055 18.5237C58.3795 18.5237 59.3787 19.1798 59.3787 20.3407C59.3787 21.4764 58.4045 22.0821 57.1305 22.0821C55.8814 22.0821 54.8572 21.4764 54.8572 20.3407ZM77.8643 24.9338C77.8643 27.0032 75.8908 27.4574 73.8924 27.4574C71.6192 27.4574 69.7456 26.6499 69.246 26.4227L67.6972 30.5616C69.1961 31.3439 71.5192 32 73.8924 32C78.8885 32 83.2101 30.0316 83.2101 23.7729V8.8076H78.214V10.1451C77.7394 9.58994 76.1406 8.40382 73.6676 8.40382C68.8463 8.40382 65.449 12.0884 65.449 17.2871C65.449 22.5615 68.5216 26.2209 73.3928 26.2209C75.9408 26.2209 77.5146 24.9338 77.8643 24.5048V24.9338ZM78.0392 17.2619C78.0392 19.9369 76.5154 21.4764 74.417 21.4764C72.2437 21.4764 70.7948 19.7603 70.7948 17.2619C70.7948 14.7382 72.2437 13.1483 74.392 13.1483C76.6902 13.1483 78.0392 14.9906 78.0392 17.2619ZM127.401 25.7918H132.747V16.3786C132.747 12.9212 132.247 8.40382 126.976 8.40382C124.878 8.40382 123.404 9.5647 122.754 10.5742V8.8076H117.533V25.7918H122.879V15.672C122.879 14.3092 123.729 13.2492 125.202 13.2492C126.476 13.2492 127.401 14.0821 127.401 15.672V25.7918Z" fill="#21334F"/>
<path fill-rule="evenodd" clip-rule="evenodd" d="M96.0501 7.54574C96.7745 7.54574 97.4989 7.62145 98.2234 7.77287L97.3491 10.1956C96.9494 10.1451 96.5247 10.1199 96.1 10.1199C95.0259 10.1199 94.0017 10.2965 93.0274 10.6498L92.6277 8.07571C93.7019 7.7224 94.851 7.54574 96.0501 7.54574ZM94.7011 23.6467C94.3264 22.9905 94.0267 22.3092 93.8018 21.6278L96.3249 21.1735C96.4747 21.5521 96.6496 21.9306 96.8744 22.2839C97.399 23.2429 98.0735 24.0505 98.8479 24.7066L96.8744 26.347C96.0251 25.5899 95.3007 24.6814 94.7011 23.6467ZM115.26 19.3817C115.185 19.9369 115.085 20.4669 114.96 20.9969L113.861 20.5174C113.986 20.0631 114.111 19.6088 114.186 19.1546L115.26 19.3817ZM113.761 23.7981C113.437 24.3786 113.037 24.9085 112.587 25.4133L111.538 24.2776C111.938 23.8991 112.287 23.47 112.612 23.0158L113.761 23.7981ZM110.664 27.1546C110.389 27.3565 110.114 27.5584 109.814 27.735C109.29 28.0379 108.74 28.2902 108.191 28.4921L107.691 26.5994C108.34 26.3975 109.015 26.1199 109.639 25.7413C109.739 25.6909 109.814 25.6404 109.914 25.5899L110.664 27.1546ZM106.192 29.0473C105.043 29.2492 103.869 29.2745 102.72 29.0978L103.444 26.877C104.369 27.0536 105.343 27.0536 106.317 26.9275L106.192 29.0473ZM101.471 28.8454L102.42 26.6499C101.346 26.347 100.322 25.8423 99.4224 25.1609L97.6988 27.0284C98.8229 27.8864 100.122 28.4921 101.471 28.8454ZM89.4053 27.6593C88.9806 27.3312 88.5559 26.9779 88.1812 26.5741L89.1305 25.8675C89.4552 26.2208 89.78 26.5489 90.1547 26.8517L89.4053 27.6593ZM86.3576 24.1514C86.0579 23.571 85.7831 22.9401 85.5583 22.3092L87.0571 21.9558C87.207 22.4858 87.3818 23.0158 87.6067 23.5205L86.3576 24.1514ZM85.0337 19.7603C84.9837 19.4069 84.9837 19.0789 84.9837 18.7256C84.9837 18.0946 85.0337 17.5142 85.1336 16.9085L87.0071 17.4133C86.8323 18.0946 86.7573 18.8265 86.7573 19.5584V19.8612L85.0337 19.7603ZM85.6582 14.8896C86.0579 13.7792 86.6324 12.7445 87.3319 11.836L88.8807 13.5521C88.2811 14.3092 87.7815 15.142 87.4068 16.0757L85.6582 14.8896ZM88.1812 10.8517L89.5801 12.795C90.3795 12.0126 91.3288 11.3565 92.353 10.9022L91.6285 8.4795C90.3295 9.0347 89.1555 9.84227 88.1812 10.8517ZM109.165 16.7571C108.79 17.4133 108.365 18.0189 107.891 18.5489L106.242 16.5804C106.492 16.2524 106.717 15.8991 106.917 15.5457C107.466 14.5868 107.816 13.6025 108.016 12.5931L110.414 13.5016C110.164 14.6372 109.764 15.7224 109.165 16.7571ZM95.2507 0.908518C95.7503 0.681388 96.2499 0.504732 96.7745 0.378549L96.8994 1.56467C96.4498 1.66562 96.0001 1.7918 95.5754 1.96845L95.2507 0.908518ZM99.7722 0C100.422 0 101.096 0.0757098 101.746 0.201893L101.296 1.69085C100.771 1.53943 100.222 1.46372 99.6723 1.41325L99.7722 0ZM104.194 1.00946C104.518 1.16088 104.818 1.3123 105.118 1.48896C105.643 1.7918 106.142 2.14511 106.592 2.52366L105.218 3.91167C104.718 3.43218 104.144 3.00316 103.494 2.62461C103.419 2.57413 103.319 2.52366 103.244 2.47319L104.194 1.00946ZM108.066 3.98738C108.815 4.8959 109.415 5.9306 109.839 6.99054L107.591 7.49527C107.241 6.58675 106.767 5.72871 106.167 4.94637L108.066 3.98738ZM110.264 8.22713C110.614 9.58991 110.739 11.0284 110.564 12.4416L108.116 11.8612C108.241 10.7256 108.166 9.58991 107.891 8.50473L110.264 8.22713Z" fill="#B8D344"/>
<path fill-rule="evenodd" clip-rule="evenodd" d="M90.7791 15.1925C91.1539 14.5616 91.5785 13.9559 92.0532 13.4007L93.7019 15.3691C93.4521 15.6972 93.2272 16.0505 93.0024 16.4291C92.4778 17.3628 92.1031 18.3723 91.9282 19.3818L89.5301 18.448C89.7799 17.3376 90.1796 16.2272 90.7791 15.1925ZM105.243 8.32812C105.618 8.98427 105.892 9.64042 106.142 10.347L103.619 10.8013C103.469 10.4228 103.269 10.0442 103.07 9.66566C102.52 8.73191 101.846 7.92434 101.071 7.24295L103.07 5.6278C103.894 6.3849 104.643 7.29342 105.243 8.32812ZM84.6839 12.5679C84.7339 12.0379 84.8338 11.5079 84.9837 10.978L86.0828 11.4575C85.9329 11.8865 85.833 12.3407 85.7581 12.8202L84.6839 12.5679ZM86.1827 8.15146C86.5075 7.59626 86.9072 7.04105 87.3318 6.53632L88.381 7.67197C88.0063 8.07575 87.6316 8.50478 87.3318 8.9338L86.1827 8.15146ZM89.2553 4.795C89.5301 4.5931 89.8299 4.41645 90.1297 4.23979C90.6542 3.93695 91.1788 3.65935 91.7284 3.45746L92.253 5.3502C91.5785 5.55209 90.929 5.8297 90.2795 6.20825C90.2046 6.25872 90.1047 6.30919 90.0297 6.35967L89.2553 4.795ZM93.7518 2.90225C94.9009 2.70036 96.075 2.67512 97.2241 2.85178L96.4997 5.0726C95.5504 4.92118 94.5762 4.89594 93.6269 5.04736L93.7518 2.90225ZM98.4731 3.10414L97.5239 5.29973C98.598 5.60257 99.5973 6.1073 100.522 6.78869L102.245 4.92118C101.096 4.08837 99.8221 3.45746 98.4731 3.10414ZM103.894 24.4038C103.145 24.4038 102.42 24.3281 101.721 24.2019L102.595 21.754C102.995 21.8045 103.419 21.8549 103.819 21.8549C104.918 21.8549 105.942 21.653 106.917 21.325L107.291 23.8739C106.217 24.2272 105.093 24.4038 103.894 24.4038ZM110.539 4.3155C110.963 4.64358 111.363 4.99689 111.738 5.37544L110.789 6.1073C110.489 5.75399 110.139 5.42591 109.789 5.12307L110.539 4.3155ZM113.561 7.82339C113.886 8.40383 114.161 9.00951 114.386 9.64042L112.887 9.99374C112.737 9.46377 112.537 8.9338 112.312 8.42907L113.561 7.82339ZM114.91 12.2146C114.935 12.5426 114.96 12.8959 114.96 13.2493C114.96 13.8549 114.91 14.4606 114.81 15.0411L112.937 14.5363C113.087 13.8549 113.187 13.1483 113.187 12.3912C113.187 12.2903 113.187 12.1893 113.162 12.0884L114.91 12.2146ZM114.286 17.0852C113.886 18.1956 113.312 19.2303 112.612 20.1389L111.038 18.3975C111.663 17.6404 112.162 16.8076 112.512 15.8991L114.286 17.0852ZM111.738 21.0978L110.339 19.1799C109.54 19.9622 108.615 20.5931 107.566 21.0474L108.315 23.4953C109.614 22.9149 110.764 22.1073 111.738 21.0978ZM104.693 31.0663C104.194 31.2682 103.694 31.4448 103.169 31.5963L103.02 30.3849C103.469 30.3092 103.919 30.1578 104.369 30.0064L104.693 31.0663ZM100.172 31.9496C99.4973 31.9496 98.8479 31.8739 98.1984 31.7477L98.648 30.2587C99.1726 30.4101 99.7222 30.5111 100.247 30.5616L100.172 31.9496ZM95.7253 30.9401C95.4255 30.7887 95.1258 30.6373 94.826 30.4606C94.3014 30.1578 93.8018 29.8045 93.3521 29.4259L94.7011 28.0379C95.2257 28.5174 95.8002 28.9717 96.4247 29.325C96.5247 29.3754 96.5996 29.4259 96.6995 29.4764L95.7253 30.9401ZM91.8783 27.9622C91.1039 27.0537 90.5293 26.0442 90.0797 24.959L92.3529 24.4543C92.6777 25.3628 93.1523 26.2209 93.7768 27.0032L91.8783 27.9622ZM89.68 23.7224C89.3053 22.3597 89.2054 20.9464 89.3553 19.5079L91.8033 20.0884C91.6784 21.224 91.7784 22.3597 92.0532 23.4701L89.68 23.7224Z" fill="#34A853"/>
</svg>

